<mxfile host="app.diagrams.net" agent="Mozilla/5.0 (Macintosh; Intel Mac OS X 10_15_7) AppleWebKit/537.36 (KHTML, like Gecko) Chrome/127.0.0.0 Safari/537.36" version="24.7.6">
  <diagram name="페이지-1" id="rYzPdacisFxduKJ7r3z3">
    <mxGraphModel dx="8754" dy="5074" grid="1" gridSize="10" guides="1" tooltips="1" connect="1" arrows="1" fold="1" page="1" pageScale="1" pageWidth="827" pageHeight="1169" math="0" shadow="0">
      <root>
        <mxCell id="0" />
        <mxCell id="1" parent="0" />
        <mxCell id="ByIBVLOWsQhNoz3f1sCV-92" value="Availability Zone" style="fillColor=none;strokeColor=#147EBA;dashed=1;verticalAlign=top;fontStyle=0;fontColor=#147EBA;whiteSpace=wrap;html=1;" vertex="1" parent="1">
          <mxGeometry x="-1360" y="-300" width="1360" height="1360" as="geometry" />
        </mxCell>
        <mxCell id="ByIBVLOWsQhNoz3f1sCV-181" value="Availability Zone" style="fillColor=none;strokeColor=#147EBA;dashed=1;verticalAlign=top;fontStyle=0;fontColor=#147EBA;whiteSpace=wrap;html=1;" vertex="1" parent="1">
          <mxGeometry x="1680" y="-300" width="1360" height="1360" as="geometry" />
        </mxCell>
        <mxCell id="ByIBVLOWsQhNoz3f1sCV-137" value="Availability Zone" style="fillColor=none;strokeColor=#147EBA;dashed=1;verticalAlign=top;fontStyle=0;fontColor=#147EBA;whiteSpace=wrap;html=1;" vertex="1" parent="1">
          <mxGeometry x="160" y="-300" width="1360" height="1360" as="geometry" />
        </mxCell>
        <mxCell id="ByIBVLOWsQhNoz3f1sCV-95" value="Public subnet" style="points=[[0,0],[0.25,0],[0.5,0],[0.75,0],[1,0],[1,0.25],[1,0.5],[1,0.75],[1,1],[0.75,1],[0.5,1],[0.25,1],[0,1],[0,0.75],[0,0.5],[0,0.25]];outlineConnect=0;gradientColor=none;html=1;whiteSpace=wrap;fontSize=12;fontStyle=0;container=1;pointerEvents=0;collapsible=0;recursiveResize=0;shape=mxgraph.aws4.group;grIcon=mxgraph.aws4.group_security_group;grStroke=0;strokeColor=#7AA116;fillColor=#F2F6E8;verticalAlign=top;align=left;spacingLeft=30;fontColor=#248814;dashed=0;" vertex="1" parent="1">
          <mxGeometry x="480" y="-220" width="920" height="280" as="geometry" />
        </mxCell>
        <mxCell id="ByIBVLOWsQhNoz3f1sCV-96" value="" style="sketch=0;outlineConnect=0;fontColor=#232F3E;gradientColor=none;fillColor=#8C4FFF;strokeColor=none;dashed=0;verticalLabelPosition=bottom;verticalAlign=top;align=center;html=1;fontSize=12;fontStyle=0;aspect=fixed;pointerEvents=1;shape=mxgraph.aws4.application_load_balancer;" vertex="1" parent="ByIBVLOWsQhNoz3f1sCV-95">
          <mxGeometry x="586" y="101" width="78" height="78" as="geometry" />
        </mxCell>
        <mxCell id="ByIBVLOWsQhNoz3f1sCV-97" value="Ingress Controller" style="text;html=1;align=center;verticalAlign=middle;resizable=0;points=[];autosize=1;strokeColor=none;fillColor=none;" vertex="1" parent="ByIBVLOWsQhNoz3f1sCV-95">
          <mxGeometry x="565" y="179" width="120" height="30" as="geometry" />
        </mxCell>
        <mxCell id="ByIBVLOWsQhNoz3f1sCV-98" value="" style="sketch=0;outlineConnect=0;fontColor=#232F3E;gradientColor=none;fillColor=#8C4FFF;strokeColor=none;dashed=0;verticalLabelPosition=bottom;verticalAlign=top;align=center;html=1;fontSize=12;fontStyle=0;aspect=fixed;pointerEvents=1;shape=mxgraph.aws4.nat_gateway;" vertex="1" parent="ByIBVLOWsQhNoz3f1sCV-95">
          <mxGeometry x="250" y="101" width="78" height="78" as="geometry" />
        </mxCell>
        <mxCell id="ByIBVLOWsQhNoz3f1sCV-99" value="NAT" style="text;html=1;align=center;verticalAlign=middle;resizable=0;points=[];autosize=1;strokeColor=none;fillColor=none;" vertex="1" parent="ByIBVLOWsQhNoz3f1sCV-95">
          <mxGeometry x="264" y="179" width="50" height="30" as="geometry" />
        </mxCell>
        <mxCell id="ByIBVLOWsQhNoz3f1sCV-100" value="" style="sketch=0;outlineConnect=0;fontColor=#232F3E;gradientColor=none;fillColor=#ED7100;strokeColor=none;dashed=0;verticalLabelPosition=bottom;verticalAlign=top;align=center;html=1;fontSize=12;fontStyle=0;aspect=fixed;pointerEvents=1;shape=mxgraph.aws4.elastic_ip_address;" vertex="1" parent="ByIBVLOWsQhNoz3f1sCV-95">
          <mxGeometry x="202" y="101" width="48" height="20" as="geometry" />
        </mxCell>
        <mxCell id="ByIBVLOWsQhNoz3f1sCV-101" value="Security group" style="fillColor=none;strokeColor=#DD3522;verticalAlign=top;fontStyle=0;fontColor=#DD3522;whiteSpace=wrap;html=1;" vertex="1" parent="ByIBVLOWsQhNoz3f1sCV-95">
          <mxGeometry x="520" y="30" width="200" height="210" as="geometry" />
        </mxCell>
        <mxCell id="ByIBVLOWsQhNoz3f1sCV-102" value="Private subnet" style="points=[[0,0],[0.25,0],[0.5,0],[0.75,0],[1,0],[1,0.25],[1,0.5],[1,0.75],[1,1],[0.75,1],[0.5,1],[0.25,1],[0,1],[0,0.75],[0,0.5],[0,0.25]];outlineConnect=0;gradientColor=none;html=1;whiteSpace=wrap;fontSize=12;fontStyle=0;container=1;pointerEvents=0;collapsible=0;recursiveResize=0;shape=mxgraph.aws4.group;grIcon=mxgraph.aws4.group_security_group;grStroke=0;strokeColor=#00A4A6;fillColor=#E6F6F7;verticalAlign=top;align=left;spacingLeft=30;fontColor=#147EBA;dashed=0;" vertex="1" parent="1">
          <mxGeometry x="480" y="100" width="920" height="880" as="geometry" />
        </mxCell>
        <mxCell id="ByIBVLOWsQhNoz3f1sCV-103" value="EC2 instance contents" style="points=[[0,0],[0.25,0],[0.5,0],[0.75,0],[1,0],[1,0.25],[1,0.5],[1,0.75],[1,1],[0.75,1],[0.5,1],[0.25,1],[0,1],[0,0.75],[0,0.5],[0,0.25]];outlineConnect=0;gradientColor=none;html=1;whiteSpace=wrap;fontSize=12;fontStyle=0;container=1;pointerEvents=0;collapsible=0;recursiveResize=0;shape=mxgraph.aws4.group;grIcon=mxgraph.aws4.group_ec2_instance_contents;strokeColor=#D86613;fillColor=none;verticalAlign=top;align=left;spacingLeft=30;fontColor=#D86613;dashed=0;" vertex="1" parent="1">
          <mxGeometry x="560" y="182" width="760" height="720" as="geometry" />
        </mxCell>
        <mxCell id="ByIBVLOWsQhNoz3f1sCV-104" style="edgeStyle=orthogonalEdgeStyle;rounded=0;orthogonalLoop=1;jettySize=auto;html=1;" edge="1" parent="1" source="ByIBVLOWsQhNoz3f1sCV-105" target="ByIBVLOWsQhNoz3f1sCV-135">
          <mxGeometry relative="1" as="geometry" />
        </mxCell>
        <mxCell id="ByIBVLOWsQhNoz3f1sCV-105" value="Security group" style="fillColor=none;strokeColor=#DD3522;verticalAlign=top;fontStyle=0;fontColor=#DD3522;whiteSpace=wrap;html=1;" vertex="1" parent="1">
          <mxGeometry x="520" y="140" width="840" height="800" as="geometry" />
        </mxCell>
        <mxCell id="ByIBVLOWsQhNoz3f1sCV-106" value="Runtime Container Area" style="fillColor=none;strokeColor=#5A6C86;dashed=1;verticalAlign=top;fontStyle=0;fontColor=#5A6C86;whiteSpace=wrap;html=1;" vertex="1" parent="1">
          <mxGeometry x="840" y="262" width="440" height="480" as="geometry" />
        </mxCell>
        <mxCell id="ByIBVLOWsQhNoz3f1sCV-107" value="" style="aspect=fixed;sketch=0;html=1;dashed=0;whitespace=wrap;verticalLabelPosition=bottom;verticalAlign=top;fillColor=#2875E2;strokeColor=#ffffff;points=[[0.005,0.63,0],[0.1,0.2,0],[0.9,0.2,0],[0.5,0,0],[0.995,0.63,0],[0.72,0.99,0],[0.5,1,0],[0.28,0.99,0]];shape=mxgraph.kubernetes.icon2;kubernetesLabel=1;prIcon=hpa" vertex="1" parent="1">
          <mxGeometry x="960" y="783.5" width="50" height="48" as="geometry" />
        </mxCell>
        <mxCell id="ByIBVLOWsQhNoz3f1sCV-108" value="" style="aspect=fixed;sketch=0;html=1;dashed=0;whitespace=wrap;verticalLabelPosition=bottom;verticalAlign=top;fillColor=#2875E2;strokeColor=#ffffff;points=[[0.005,0.63,0],[0.1,0.2,0],[0.9,0.2,0],[0.5,0,0],[0.995,0.63,0],[0.72,0.99,0],[0.5,1,0],[0.28,0.99,0]];shape=mxgraph.kubernetes.icon2;kubernetesLabel=1;prIcon=svc" vertex="1" parent="1">
          <mxGeometry x="1080" y="462" width="50" height="48" as="geometry" />
        </mxCell>
        <mxCell id="ByIBVLOWsQhNoz3f1sCV-109" value="" style="aspect=fixed;sketch=0;html=1;dashed=0;whitespace=wrap;verticalLabelPosition=bottom;verticalAlign=top;fillColor=#2875E2;strokeColor=#ffffff;points=[[0.005,0.63,0],[0.1,0.2,0],[0.9,0.2,0],[0.5,0,0],[0.995,0.63,0],[0.72,0.99,0],[0.5,1,0],[0.28,0.99,0]];shape=mxgraph.kubernetes.icon2;kubernetesLabel=1;prIcon=deploy" vertex="1" parent="1">
          <mxGeometry x="1200" y="783.5" width="50" height="48" as="geometry" />
        </mxCell>
        <mxCell id="ByIBVLOWsQhNoz3f1sCV-110" style="edgeStyle=orthogonalEdgeStyle;rounded=0;orthogonalLoop=1;jettySize=auto;html=1;" edge="1" parent="1" source="ByIBVLOWsQhNoz3f1sCV-111" target="ByIBVLOWsQhNoz3f1sCV-96">
          <mxGeometry relative="1" as="geometry" />
        </mxCell>
        <mxCell id="ByIBVLOWsQhNoz3f1sCV-111" value="" style="aspect=fixed;sketch=0;html=1;dashed=0;whitespace=wrap;verticalLabelPosition=bottom;verticalAlign=top;fillColor=#2875E2;strokeColor=#ffffff;points=[[0.005,0.63,0],[0.1,0.2,0],[0.9,0.2,0],[0.5,0,0],[0.995,0.63,0],[0.72,0.99,0],[0.5,1,0],[0.28,0.99,0]];shape=mxgraph.kubernetes.icon2;kubernetesLabel=1;prIcon=ing" vertex="1" parent="1">
          <mxGeometry x="1080" y="302" width="50" height="48" as="geometry" />
        </mxCell>
        <mxCell id="ByIBVLOWsQhNoz3f1sCV-112" value="" style="aspect=fixed;sketch=0;html=1;dashed=0;whitespace=wrap;verticalLabelPosition=bottom;verticalAlign=top;fillColor=#2875E2;strokeColor=#ffffff;points=[[0.005,0.63,0],[0.1,0.2,0],[0.9,0.2,0],[0.5,0,0],[0.995,0.63,0],[0.72,0.99,0],[0.5,1,0],[0.28,0.99,0]];shape=mxgraph.kubernetes.icon2;kubernetesLabel=1;prIcon=pod" vertex="1" parent="1">
          <mxGeometry x="1080" y="622" width="50" height="48" as="geometry" />
        </mxCell>
        <mxCell id="ByIBVLOWsQhNoz3f1sCV-113" value="" style="aspect=fixed;sketch=0;html=1;dashed=0;whitespace=wrap;verticalLabelPosition=bottom;verticalAlign=top;fillColor=#2875E2;strokeColor=#ffffff;points=[[0.005,0.63,0],[0.1,0.2,0],[0.9,0.2,0],[0.5,0,0],[0.995,0.63,0],[0.72,0.99,0],[0.5,1,0],[0.28,0.99,0]];shape=mxgraph.kubernetes.icon2;kubernetesLabel=1;prIcon=pod" vertex="1" parent="1">
          <mxGeometry x="960" y="622" width="50" height="48" as="geometry" />
        </mxCell>
        <mxCell id="ByIBVLOWsQhNoz3f1sCV-114" value="" style="aspect=fixed;sketch=0;html=1;dashed=0;whitespace=wrap;verticalLabelPosition=bottom;verticalAlign=top;fillColor=#2875E2;strokeColor=#ffffff;points=[[0.005,0.63,0],[0.1,0.2,0],[0.9,0.2,0],[0.5,0,0],[0.995,0.63,0],[0.72,0.99,0],[0.5,1,0],[0.28,0.99,0]];shape=mxgraph.kubernetes.icon2;kubernetesLabel=1;prIcon=pod" vertex="1" parent="1">
          <mxGeometry x="1200" y="622" width="50" height="48" as="geometry" />
        </mxCell>
        <mxCell id="ByIBVLOWsQhNoz3f1sCV-115" value="" style="aspect=fixed;sketch=0;html=1;dashed=0;whitespace=wrap;verticalLabelPosition=bottom;verticalAlign=top;fillColor=#2875E2;strokeColor=#ffffff;points=[[0.005,0.63,0],[0.1,0.2,0],[0.9,0.2,0],[0.5,0,0],[0.995,0.63,0],[0.72,0.99,0],[0.5,1,0],[0.28,0.99,0]];shape=mxgraph.kubernetes.icon2;prIcon=pod" vertex="1" parent="1">
          <mxGeometry x="1080" y="783.5" width="50" height="48" as="geometry" />
        </mxCell>
        <mxCell id="ByIBVLOWsQhNoz3f1sCV-116" value="pdb" style="text;html=1;align=center;verticalAlign=middle;resizable=0;points=[];autosize=1;strokeColor=none;fillColor=none;fontColor=#FFFFFF;fontSize=7;" vertex="1" parent="1">
          <mxGeometry x="1085" y="814.5" width="40" height="20" as="geometry" />
        </mxCell>
        <mxCell id="ByIBVLOWsQhNoz3f1sCV-117" value="" style="aspect=fixed;sketch=0;html=1;dashed=0;whitespace=wrap;verticalLabelPosition=bottom;verticalAlign=top;fillColor=#2875E2;strokeColor=#ffffff;points=[[0.005,0.63,0],[0.1,0.2,0],[0.9,0.2,0],[0.5,0,0],[0.995,0.63,0],[0.72,0.99,0],[0.5,1,0],[0.28,0.99,0]];shape=mxgraph.kubernetes.icon2;prIcon=pod" vertex="1" parent="1">
          <mxGeometry x="840" y="783.5" width="50" height="48" as="geometry" />
        </mxCell>
        <mxCell id="ByIBVLOWsQhNoz3f1sCV-118" value="ca" style="text;html=1;align=center;verticalAlign=middle;resizable=0;points=[];autosize=1;strokeColor=none;fillColor=none;fontColor=#FFFFFF;fontSize=7;" vertex="1" parent="1">
          <mxGeometry x="850" y="814.5" width="30" height="20" as="geometry" />
        </mxCell>
        <mxCell id="ByIBVLOWsQhNoz3f1sCV-119" style="edgeStyle=orthogonalEdgeStyle;rounded=0;orthogonalLoop=1;jettySize=auto;html=1;entryX=0.5;entryY=0;entryDx=0;entryDy=0;entryPerimeter=0;startArrow=open;startFill=0;" edge="1" parent="1" source="ByIBVLOWsQhNoz3f1sCV-111" target="ByIBVLOWsQhNoz3f1sCV-108">
          <mxGeometry relative="1" as="geometry" />
        </mxCell>
        <mxCell id="ByIBVLOWsQhNoz3f1sCV-120" style="edgeStyle=orthogonalEdgeStyle;rounded=0;orthogonalLoop=1;jettySize=auto;html=1;entryX=0.5;entryY=0;entryDx=0;entryDy=0;entryPerimeter=0;startArrow=block;startFill=1;" edge="1" parent="1" source="ByIBVLOWsQhNoz3f1sCV-108" target="ByIBVLOWsQhNoz3f1sCV-113">
          <mxGeometry relative="1" as="geometry" />
        </mxCell>
        <mxCell id="ByIBVLOWsQhNoz3f1sCV-121" style="edgeStyle=orthogonalEdgeStyle;rounded=0;orthogonalLoop=1;jettySize=auto;html=1;entryX=0.5;entryY=0;entryDx=0;entryDy=0;entryPerimeter=0;startArrow=blockThin;startFill=1;" edge="1" parent="1" source="ByIBVLOWsQhNoz3f1sCV-108" target="ByIBVLOWsQhNoz3f1sCV-114">
          <mxGeometry relative="1" as="geometry" />
        </mxCell>
        <mxCell id="ByIBVLOWsQhNoz3f1sCV-122" style="edgeStyle=orthogonalEdgeStyle;rounded=0;orthogonalLoop=1;jettySize=auto;html=1;entryX=0.5;entryY=0;entryDx=0;entryDy=0;entryPerimeter=0;startArrow=block;startFill=1;" edge="1" parent="1" source="ByIBVLOWsQhNoz3f1sCV-108" target="ByIBVLOWsQhNoz3f1sCV-112">
          <mxGeometry relative="1" as="geometry" />
        </mxCell>
        <mxCell id="ByIBVLOWsQhNoz3f1sCV-123" value="" style="endArrow=classic;html=1;rounded=0;dashed=1;dashPattern=8 8;exitX=0.5;exitY=0;exitDx=0;exitDy=0;exitPerimeter=0;entryX=0.72;entryY=0.99;entryDx=0;entryDy=0;entryPerimeter=0;" edge="1" parent="1" source="ByIBVLOWsQhNoz3f1sCV-109" target="ByIBVLOWsQhNoz3f1sCV-113">
          <mxGeometry width="50" height="50" relative="1" as="geometry">
            <mxPoint x="1320" y="662" as="sourcePoint" />
            <mxPoint x="1370" y="612" as="targetPoint" />
          </mxGeometry>
        </mxCell>
        <mxCell id="ByIBVLOWsQhNoz3f1sCV-124" value="" style="endArrow=classic;html=1;rounded=0;dashed=1;dashPattern=8 8;exitX=0.5;exitY=0;exitDx=0;exitDy=0;exitPerimeter=0;entryX=0.72;entryY=0.99;entryDx=0;entryDy=0;entryPerimeter=0;" edge="1" parent="1" source="ByIBVLOWsQhNoz3f1sCV-109" target="ByIBVLOWsQhNoz3f1sCV-112">
          <mxGeometry width="50" height="50" relative="1" as="geometry">
            <mxPoint x="1275" y="712" as="sourcePoint" />
            <mxPoint x="1126" y="680" as="targetPoint" />
          </mxGeometry>
        </mxCell>
        <mxCell id="ByIBVLOWsQhNoz3f1sCV-125" value="" style="endArrow=classic;html=1;rounded=0;dashed=1;dashPattern=8 8;exitX=0.5;exitY=0;exitDx=0;exitDy=0;exitPerimeter=0;entryX=0.5;entryY=1;entryDx=0;entryDy=0;entryPerimeter=0;" edge="1" parent="1" source="ByIBVLOWsQhNoz3f1sCV-109" target="ByIBVLOWsQhNoz3f1sCV-114">
          <mxGeometry width="50" height="50" relative="1" as="geometry">
            <mxPoint x="1275" y="712" as="sourcePoint" />
            <mxPoint x="1206" y="680" as="targetPoint" />
          </mxGeometry>
        </mxCell>
        <mxCell id="ByIBVLOWsQhNoz3f1sCV-126" value="" style="aspect=fixed;sketch=0;html=1;dashed=0;whitespace=wrap;verticalLabelPosition=bottom;verticalAlign=top;fillColor=#2875E2;strokeColor=#ffffff;points=[[0.005,0.63,0],[0.1,0.2,0],[0.9,0.2,0],[0.5,0,0],[0.995,0.63,0],[0.72,0.99,0],[0.5,1,0],[0.28,0.99,0]];shape=mxgraph.kubernetes.icon2;kubernetesLabel=1;prIcon=k_proxy" vertex="1" parent="1">
          <mxGeometry x="680" y="422" width="50" height="48" as="geometry" />
        </mxCell>
        <mxCell id="ByIBVLOWsQhNoz3f1sCV-127" style="edgeStyle=orthogonalEdgeStyle;rounded=0;orthogonalLoop=1;jettySize=auto;html=1;" edge="1" parent="1" source="ByIBVLOWsQhNoz3f1sCV-128">
          <mxGeometry relative="1" as="geometry">
            <mxPoint x="830" y="807.5" as="targetPoint" />
          </mxGeometry>
        </mxCell>
        <mxCell id="ByIBVLOWsQhNoz3f1sCV-128" value="" style="aspect=fixed;sketch=0;html=1;dashed=0;whitespace=wrap;verticalLabelPosition=bottom;verticalAlign=top;fillColor=#2875E2;strokeColor=#ffffff;points=[[0.005,0.63,0],[0.1,0.2,0],[0.9,0.2,0],[0.5,0,0],[0.995,0.63,0],[0.72,0.99,0],[0.5,1,0],[0.28,0.99,0]];shape=mxgraph.kubernetes.icon2;kubernetesLabel=1;prIcon=kubelet" vertex="1" parent="1">
          <mxGeometry x="680" y="783.5" width="50" height="48" as="geometry" />
        </mxCell>
        <mxCell id="ByIBVLOWsQhNoz3f1sCV-129" style="edgeStyle=orthogonalEdgeStyle;rounded=0;orthogonalLoop=1;jettySize=auto;html=1;entryX=0.1;entryY=0.2;entryDx=0;entryDy=0;entryPerimeter=0;" edge="1" parent="1" source="ByIBVLOWsQhNoz3f1sCV-126" target="ByIBVLOWsQhNoz3f1sCV-108">
          <mxGeometry relative="1" as="geometry">
            <Array as="points">
              <mxPoint x="1085" y="446" />
            </Array>
          </mxGeometry>
        </mxCell>
        <mxCell id="ByIBVLOWsQhNoz3f1sCV-130" value="" style="fillColor=none;strokeColor=#5A6C86;dashed=1;verticalAlign=top;fontStyle=0;fontColor=#5A6C86;whiteSpace=wrap;html=1;" vertex="1" parent="1">
          <mxGeometry x="840" y="752" width="440" height="110" as="geometry" />
        </mxCell>
        <mxCell id="ByIBVLOWsQhNoz3f1sCV-134" style="edgeStyle=orthogonalEdgeStyle;rounded=0;orthogonalLoop=1;jettySize=auto;html=1;" edge="1" parent="1" source="ByIBVLOWsQhNoz3f1sCV-135" target="ByIBVLOWsQhNoz3f1sCV-98">
          <mxGeometry relative="1" as="geometry">
            <Array as="points">
              <mxPoint x="359" y="-80" />
            </Array>
          </mxGeometry>
        </mxCell>
        <mxCell id="ByIBVLOWsQhNoz3f1sCV-135" value="" style="sketch=0;outlineConnect=0;fontColor=#232F3E;gradientColor=none;fillColor=#8C4FFF;strokeColor=none;dashed=0;verticalLabelPosition=bottom;verticalAlign=top;align=center;html=1;fontSize=12;fontStyle=0;aspect=fixed;pointerEvents=1;shape=mxgraph.aws4.route_table;" vertex="1" parent="1">
          <mxGeometry x="320" y="502" width="78" height="76" as="geometry" />
        </mxCell>
        <mxCell id="ByIBVLOWsQhNoz3f1sCV-136" value="Route Table" style="text;html=1;align=center;verticalAlign=middle;resizable=0;points=[];autosize=1;strokeColor=none;fillColor=none;" vertex="1" parent="1">
          <mxGeometry x="314" y="578" width="90" height="30" as="geometry" />
        </mxCell>
        <mxCell id="ByIBVLOWsQhNoz3f1sCV-139" value="Public subnet" style="points=[[0,0],[0.25,0],[0.5,0],[0.75,0],[1,0],[1,0.25],[1,0.5],[1,0.75],[1,1],[0.75,1],[0.5,1],[0.25,1],[0,1],[0,0.75],[0,0.5],[0,0.25]];outlineConnect=0;gradientColor=none;html=1;whiteSpace=wrap;fontSize=12;fontStyle=0;container=1;pointerEvents=0;collapsible=0;recursiveResize=0;shape=mxgraph.aws4.group;grIcon=mxgraph.aws4.group_security_group;grStroke=0;strokeColor=#7AA116;fillColor=#F2F6E8;verticalAlign=top;align=left;spacingLeft=30;fontColor=#248814;dashed=0;" vertex="1" parent="1">
          <mxGeometry x="2000" y="-220" width="920" height="280" as="geometry" />
        </mxCell>
        <mxCell id="ByIBVLOWsQhNoz3f1sCV-140" value="" style="sketch=0;outlineConnect=0;fontColor=#232F3E;gradientColor=none;fillColor=#8C4FFF;strokeColor=none;dashed=0;verticalLabelPosition=bottom;verticalAlign=top;align=center;html=1;fontSize=12;fontStyle=0;aspect=fixed;pointerEvents=1;shape=mxgraph.aws4.application_load_balancer;" vertex="1" parent="ByIBVLOWsQhNoz3f1sCV-139">
          <mxGeometry x="586" y="101" width="78" height="78" as="geometry" />
        </mxCell>
        <mxCell id="ByIBVLOWsQhNoz3f1sCV-141" value="Ingress Controller" style="text;html=1;align=center;verticalAlign=middle;resizable=0;points=[];autosize=1;strokeColor=none;fillColor=none;" vertex="1" parent="ByIBVLOWsQhNoz3f1sCV-139">
          <mxGeometry x="565" y="179" width="120" height="30" as="geometry" />
        </mxCell>
        <mxCell id="ByIBVLOWsQhNoz3f1sCV-142" value="" style="sketch=0;outlineConnect=0;fontColor=#232F3E;gradientColor=none;fillColor=#8C4FFF;strokeColor=none;dashed=0;verticalLabelPosition=bottom;verticalAlign=top;align=center;html=1;fontSize=12;fontStyle=0;aspect=fixed;pointerEvents=1;shape=mxgraph.aws4.nat_gateway;" vertex="1" parent="ByIBVLOWsQhNoz3f1sCV-139">
          <mxGeometry x="250" y="101" width="78" height="78" as="geometry" />
        </mxCell>
        <mxCell id="ByIBVLOWsQhNoz3f1sCV-143" value="NAT" style="text;html=1;align=center;verticalAlign=middle;resizable=0;points=[];autosize=1;strokeColor=none;fillColor=none;" vertex="1" parent="ByIBVLOWsQhNoz3f1sCV-139">
          <mxGeometry x="264" y="179" width="50" height="30" as="geometry" />
        </mxCell>
        <mxCell id="ByIBVLOWsQhNoz3f1sCV-144" value="" style="sketch=0;outlineConnect=0;fontColor=#232F3E;gradientColor=none;fillColor=#ED7100;strokeColor=none;dashed=0;verticalLabelPosition=bottom;verticalAlign=top;align=center;html=1;fontSize=12;fontStyle=0;aspect=fixed;pointerEvents=1;shape=mxgraph.aws4.elastic_ip_address;" vertex="1" parent="ByIBVLOWsQhNoz3f1sCV-139">
          <mxGeometry x="202" y="101" width="48" height="20" as="geometry" />
        </mxCell>
        <mxCell id="ByIBVLOWsQhNoz3f1sCV-145" value="Security group" style="fillColor=none;strokeColor=#DD3522;verticalAlign=top;fontStyle=0;fontColor=#DD3522;whiteSpace=wrap;html=1;" vertex="1" parent="ByIBVLOWsQhNoz3f1sCV-139">
          <mxGeometry x="520" y="30" width="200" height="210" as="geometry" />
        </mxCell>
        <mxCell id="ByIBVLOWsQhNoz3f1sCV-146" value="Private subnet" style="points=[[0,0],[0.25,0],[0.5,0],[0.75,0],[1,0],[1,0.25],[1,0.5],[1,0.75],[1,1],[0.75,1],[0.5,1],[0.25,1],[0,1],[0,0.75],[0,0.5],[0,0.25]];outlineConnect=0;gradientColor=none;html=1;whiteSpace=wrap;fontSize=12;fontStyle=0;container=1;pointerEvents=0;collapsible=0;recursiveResize=0;shape=mxgraph.aws4.group;grIcon=mxgraph.aws4.group_security_group;grStroke=0;strokeColor=#00A4A6;fillColor=#E6F6F7;verticalAlign=top;align=left;spacingLeft=30;fontColor=#147EBA;dashed=0;" vertex="1" parent="1">
          <mxGeometry x="2000" y="100" width="920" height="880" as="geometry" />
        </mxCell>
        <mxCell id="ByIBVLOWsQhNoz3f1sCV-147" value="EC2 instance contents" style="points=[[0,0],[0.25,0],[0.5,0],[0.75,0],[1,0],[1,0.25],[1,0.5],[1,0.75],[1,1],[0.75,1],[0.5,1],[0.25,1],[0,1],[0,0.75],[0,0.5],[0,0.25]];outlineConnect=0;gradientColor=none;html=1;whiteSpace=wrap;fontSize=12;fontStyle=0;container=1;pointerEvents=0;collapsible=0;recursiveResize=0;shape=mxgraph.aws4.group;grIcon=mxgraph.aws4.group_ec2_instance_contents;strokeColor=#D86613;fillColor=none;verticalAlign=top;align=left;spacingLeft=30;fontColor=#D86613;dashed=0;" vertex="1" parent="1">
          <mxGeometry x="2080" y="182" width="760" height="720" as="geometry" />
        </mxCell>
        <mxCell id="ByIBVLOWsQhNoz3f1sCV-148" style="edgeStyle=orthogonalEdgeStyle;rounded=0;orthogonalLoop=1;jettySize=auto;html=1;" edge="1" parent="1" source="ByIBVLOWsQhNoz3f1sCV-149" target="ByIBVLOWsQhNoz3f1sCV-179">
          <mxGeometry relative="1" as="geometry" />
        </mxCell>
        <mxCell id="ByIBVLOWsQhNoz3f1sCV-149" value="Security group" style="fillColor=none;strokeColor=#DD3522;verticalAlign=top;fontStyle=0;fontColor=#DD3522;whiteSpace=wrap;html=1;" vertex="1" parent="1">
          <mxGeometry x="2040" y="140" width="840" height="800" as="geometry" />
        </mxCell>
        <mxCell id="ByIBVLOWsQhNoz3f1sCV-150" value="Runtime Container Area" style="fillColor=none;strokeColor=#5A6C86;dashed=1;verticalAlign=top;fontStyle=0;fontColor=#5A6C86;whiteSpace=wrap;html=1;" vertex="1" parent="1">
          <mxGeometry x="2360" y="262" width="440" height="480" as="geometry" />
        </mxCell>
        <mxCell id="ByIBVLOWsQhNoz3f1sCV-151" value="" style="aspect=fixed;sketch=0;html=1;dashed=0;whitespace=wrap;verticalLabelPosition=bottom;verticalAlign=top;fillColor=#2875E2;strokeColor=#ffffff;points=[[0.005,0.63,0],[0.1,0.2,0],[0.9,0.2,0],[0.5,0,0],[0.995,0.63,0],[0.72,0.99,0],[0.5,1,0],[0.28,0.99,0]];shape=mxgraph.kubernetes.icon2;kubernetesLabel=1;prIcon=hpa" vertex="1" parent="1">
          <mxGeometry x="2480" y="783.5" width="50" height="48" as="geometry" />
        </mxCell>
        <mxCell id="ByIBVLOWsQhNoz3f1sCV-152" value="" style="aspect=fixed;sketch=0;html=1;dashed=0;whitespace=wrap;verticalLabelPosition=bottom;verticalAlign=top;fillColor=#2875E2;strokeColor=#ffffff;points=[[0.005,0.63,0],[0.1,0.2,0],[0.9,0.2,0],[0.5,0,0],[0.995,0.63,0],[0.72,0.99,0],[0.5,1,0],[0.28,0.99,0]];shape=mxgraph.kubernetes.icon2;kubernetesLabel=1;prIcon=svc" vertex="1" parent="1">
          <mxGeometry x="2600" y="462" width="50" height="48" as="geometry" />
        </mxCell>
        <mxCell id="ByIBVLOWsQhNoz3f1sCV-153" value="" style="aspect=fixed;sketch=0;html=1;dashed=0;whitespace=wrap;verticalLabelPosition=bottom;verticalAlign=top;fillColor=#2875E2;strokeColor=#ffffff;points=[[0.005,0.63,0],[0.1,0.2,0],[0.9,0.2,0],[0.5,0,0],[0.995,0.63,0],[0.72,0.99,0],[0.5,1,0],[0.28,0.99,0]];shape=mxgraph.kubernetes.icon2;kubernetesLabel=1;prIcon=deploy" vertex="1" parent="1">
          <mxGeometry x="2720" y="783.5" width="50" height="48" as="geometry" />
        </mxCell>
        <mxCell id="ByIBVLOWsQhNoz3f1sCV-154" style="edgeStyle=orthogonalEdgeStyle;rounded=0;orthogonalLoop=1;jettySize=auto;html=1;" edge="1" parent="1" source="ByIBVLOWsQhNoz3f1sCV-155" target="ByIBVLOWsQhNoz3f1sCV-140">
          <mxGeometry relative="1" as="geometry" />
        </mxCell>
        <mxCell id="ByIBVLOWsQhNoz3f1sCV-155" value="" style="aspect=fixed;sketch=0;html=1;dashed=0;whitespace=wrap;verticalLabelPosition=bottom;verticalAlign=top;fillColor=#2875E2;strokeColor=#ffffff;points=[[0.005,0.63,0],[0.1,0.2,0],[0.9,0.2,0],[0.5,0,0],[0.995,0.63,0],[0.72,0.99,0],[0.5,1,0],[0.28,0.99,0]];shape=mxgraph.kubernetes.icon2;kubernetesLabel=1;prIcon=ing" vertex="1" parent="1">
          <mxGeometry x="2600" y="302" width="50" height="48" as="geometry" />
        </mxCell>
        <mxCell id="ByIBVLOWsQhNoz3f1sCV-156" value="" style="aspect=fixed;sketch=0;html=1;dashed=0;whitespace=wrap;verticalLabelPosition=bottom;verticalAlign=top;fillColor=#2875E2;strokeColor=#ffffff;points=[[0.005,0.63,0],[0.1,0.2,0],[0.9,0.2,0],[0.5,0,0],[0.995,0.63,0],[0.72,0.99,0],[0.5,1,0],[0.28,0.99,0]];shape=mxgraph.kubernetes.icon2;kubernetesLabel=1;prIcon=pod" vertex="1" parent="1">
          <mxGeometry x="2600" y="622" width="50" height="48" as="geometry" />
        </mxCell>
        <mxCell id="ByIBVLOWsQhNoz3f1sCV-157" value="" style="aspect=fixed;sketch=0;html=1;dashed=0;whitespace=wrap;verticalLabelPosition=bottom;verticalAlign=top;fillColor=#2875E2;strokeColor=#ffffff;points=[[0.005,0.63,0],[0.1,0.2,0],[0.9,0.2,0],[0.5,0,0],[0.995,0.63,0],[0.72,0.99,0],[0.5,1,0],[0.28,0.99,0]];shape=mxgraph.kubernetes.icon2;kubernetesLabel=1;prIcon=pod" vertex="1" parent="1">
          <mxGeometry x="2480" y="622" width="50" height="48" as="geometry" />
        </mxCell>
        <mxCell id="ByIBVLOWsQhNoz3f1sCV-158" value="" style="aspect=fixed;sketch=0;html=1;dashed=0;whitespace=wrap;verticalLabelPosition=bottom;verticalAlign=top;fillColor=#2875E2;strokeColor=#ffffff;points=[[0.005,0.63,0],[0.1,0.2,0],[0.9,0.2,0],[0.5,0,0],[0.995,0.63,0],[0.72,0.99,0],[0.5,1,0],[0.28,0.99,0]];shape=mxgraph.kubernetes.icon2;kubernetesLabel=1;prIcon=pod" vertex="1" parent="1">
          <mxGeometry x="2720" y="622" width="50" height="48" as="geometry" />
        </mxCell>
        <mxCell id="ByIBVLOWsQhNoz3f1sCV-159" value="" style="aspect=fixed;sketch=0;html=1;dashed=0;whitespace=wrap;verticalLabelPosition=bottom;verticalAlign=top;fillColor=#2875E2;strokeColor=#ffffff;points=[[0.005,0.63,0],[0.1,0.2,0],[0.9,0.2,0],[0.5,0,0],[0.995,0.63,0],[0.72,0.99,0],[0.5,1,0],[0.28,0.99,0]];shape=mxgraph.kubernetes.icon2;prIcon=pod" vertex="1" parent="1">
          <mxGeometry x="2600" y="783.5" width="50" height="48" as="geometry" />
        </mxCell>
        <mxCell id="ByIBVLOWsQhNoz3f1sCV-160" value="pdb" style="text;html=1;align=center;verticalAlign=middle;resizable=0;points=[];autosize=1;strokeColor=none;fillColor=none;fontColor=#FFFFFF;fontSize=7;" vertex="1" parent="1">
          <mxGeometry x="2605" y="814.5" width="40" height="20" as="geometry" />
        </mxCell>
        <mxCell id="ByIBVLOWsQhNoz3f1sCV-161" value="" style="aspect=fixed;sketch=0;html=1;dashed=0;whitespace=wrap;verticalLabelPosition=bottom;verticalAlign=top;fillColor=#2875E2;strokeColor=#ffffff;points=[[0.005,0.63,0],[0.1,0.2,0],[0.9,0.2,0],[0.5,0,0],[0.995,0.63,0],[0.72,0.99,0],[0.5,1,0],[0.28,0.99,0]];shape=mxgraph.kubernetes.icon2;prIcon=pod" vertex="1" parent="1">
          <mxGeometry x="2360" y="783.5" width="50" height="48" as="geometry" />
        </mxCell>
        <mxCell id="ByIBVLOWsQhNoz3f1sCV-162" value="ca" style="text;html=1;align=center;verticalAlign=middle;resizable=0;points=[];autosize=1;strokeColor=none;fillColor=none;fontColor=#FFFFFF;fontSize=7;" vertex="1" parent="1">
          <mxGeometry x="2370" y="814.5" width="30" height="20" as="geometry" />
        </mxCell>
        <mxCell id="ByIBVLOWsQhNoz3f1sCV-163" style="edgeStyle=orthogonalEdgeStyle;rounded=0;orthogonalLoop=1;jettySize=auto;html=1;entryX=0.5;entryY=0;entryDx=0;entryDy=0;entryPerimeter=0;startArrow=open;startFill=0;" edge="1" parent="1" source="ByIBVLOWsQhNoz3f1sCV-155" target="ByIBVLOWsQhNoz3f1sCV-152">
          <mxGeometry relative="1" as="geometry" />
        </mxCell>
        <mxCell id="ByIBVLOWsQhNoz3f1sCV-164" style="edgeStyle=orthogonalEdgeStyle;rounded=0;orthogonalLoop=1;jettySize=auto;html=1;entryX=0.5;entryY=0;entryDx=0;entryDy=0;entryPerimeter=0;startArrow=block;startFill=1;" edge="1" parent="1" source="ByIBVLOWsQhNoz3f1sCV-152" target="ByIBVLOWsQhNoz3f1sCV-157">
          <mxGeometry relative="1" as="geometry" />
        </mxCell>
        <mxCell id="ByIBVLOWsQhNoz3f1sCV-165" style="edgeStyle=orthogonalEdgeStyle;rounded=0;orthogonalLoop=1;jettySize=auto;html=1;entryX=0.5;entryY=0;entryDx=0;entryDy=0;entryPerimeter=0;startArrow=blockThin;startFill=1;" edge="1" parent="1" source="ByIBVLOWsQhNoz3f1sCV-152" target="ByIBVLOWsQhNoz3f1sCV-158">
          <mxGeometry relative="1" as="geometry" />
        </mxCell>
        <mxCell id="ByIBVLOWsQhNoz3f1sCV-166" style="edgeStyle=orthogonalEdgeStyle;rounded=0;orthogonalLoop=1;jettySize=auto;html=1;entryX=0.5;entryY=0;entryDx=0;entryDy=0;entryPerimeter=0;startArrow=block;startFill=1;" edge="1" parent="1" source="ByIBVLOWsQhNoz3f1sCV-152" target="ByIBVLOWsQhNoz3f1sCV-156">
          <mxGeometry relative="1" as="geometry" />
        </mxCell>
        <mxCell id="ByIBVLOWsQhNoz3f1sCV-167" value="" style="endArrow=classic;html=1;rounded=0;dashed=1;dashPattern=8 8;exitX=0.5;exitY=0;exitDx=0;exitDy=0;exitPerimeter=0;entryX=0.72;entryY=0.99;entryDx=0;entryDy=0;entryPerimeter=0;" edge="1" parent="1" source="ByIBVLOWsQhNoz3f1sCV-153" target="ByIBVLOWsQhNoz3f1sCV-157">
          <mxGeometry width="50" height="50" relative="1" as="geometry">
            <mxPoint x="2840" y="662" as="sourcePoint" />
            <mxPoint x="2890" y="612" as="targetPoint" />
          </mxGeometry>
        </mxCell>
        <mxCell id="ByIBVLOWsQhNoz3f1sCV-168" value="" style="endArrow=classic;html=1;rounded=0;dashed=1;dashPattern=8 8;exitX=0.5;exitY=0;exitDx=0;exitDy=0;exitPerimeter=0;entryX=0.72;entryY=0.99;entryDx=0;entryDy=0;entryPerimeter=0;" edge="1" parent="1" source="ByIBVLOWsQhNoz3f1sCV-153" target="ByIBVLOWsQhNoz3f1sCV-156">
          <mxGeometry width="50" height="50" relative="1" as="geometry">
            <mxPoint x="2795" y="712" as="sourcePoint" />
            <mxPoint x="2646" y="680" as="targetPoint" />
          </mxGeometry>
        </mxCell>
        <mxCell id="ByIBVLOWsQhNoz3f1sCV-169" value="" style="endArrow=classic;html=1;rounded=0;dashed=1;dashPattern=8 8;exitX=0.5;exitY=0;exitDx=0;exitDy=0;exitPerimeter=0;entryX=0.5;entryY=1;entryDx=0;entryDy=0;entryPerimeter=0;" edge="1" parent="1" source="ByIBVLOWsQhNoz3f1sCV-153" target="ByIBVLOWsQhNoz3f1sCV-158">
          <mxGeometry width="50" height="50" relative="1" as="geometry">
            <mxPoint x="2795" y="712" as="sourcePoint" />
            <mxPoint x="2726" y="680" as="targetPoint" />
          </mxGeometry>
        </mxCell>
        <mxCell id="ByIBVLOWsQhNoz3f1sCV-170" value="" style="aspect=fixed;sketch=0;html=1;dashed=0;whitespace=wrap;verticalLabelPosition=bottom;verticalAlign=top;fillColor=#2875E2;strokeColor=#ffffff;points=[[0.005,0.63,0],[0.1,0.2,0],[0.9,0.2,0],[0.5,0,0],[0.995,0.63,0],[0.72,0.99,0],[0.5,1,0],[0.28,0.99,0]];shape=mxgraph.kubernetes.icon2;kubernetesLabel=1;prIcon=k_proxy" vertex="1" parent="1">
          <mxGeometry x="2200" y="422" width="50" height="48" as="geometry" />
        </mxCell>
        <mxCell id="ByIBVLOWsQhNoz3f1sCV-171" style="edgeStyle=orthogonalEdgeStyle;rounded=0;orthogonalLoop=1;jettySize=auto;html=1;" edge="1" parent="1" source="ByIBVLOWsQhNoz3f1sCV-172">
          <mxGeometry relative="1" as="geometry">
            <mxPoint x="2350" y="807.5" as="targetPoint" />
          </mxGeometry>
        </mxCell>
        <mxCell id="ByIBVLOWsQhNoz3f1sCV-172" value="" style="aspect=fixed;sketch=0;html=1;dashed=0;whitespace=wrap;verticalLabelPosition=bottom;verticalAlign=top;fillColor=#2875E2;strokeColor=#ffffff;points=[[0.005,0.63,0],[0.1,0.2,0],[0.9,0.2,0],[0.5,0,0],[0.995,0.63,0],[0.72,0.99,0],[0.5,1,0],[0.28,0.99,0]];shape=mxgraph.kubernetes.icon2;kubernetesLabel=1;prIcon=kubelet" vertex="1" parent="1">
          <mxGeometry x="2200" y="783.5" width="50" height="48" as="geometry" />
        </mxCell>
        <mxCell id="ByIBVLOWsQhNoz3f1sCV-173" style="edgeStyle=orthogonalEdgeStyle;rounded=0;orthogonalLoop=1;jettySize=auto;html=1;entryX=0.1;entryY=0.2;entryDx=0;entryDy=0;entryPerimeter=0;" edge="1" parent="1" source="ByIBVLOWsQhNoz3f1sCV-170" target="ByIBVLOWsQhNoz3f1sCV-152">
          <mxGeometry relative="1" as="geometry">
            <Array as="points">
              <mxPoint x="2605" y="446" />
            </Array>
          </mxGeometry>
        </mxCell>
        <mxCell id="ByIBVLOWsQhNoz3f1sCV-174" value="" style="fillColor=none;strokeColor=#5A6C86;dashed=1;verticalAlign=top;fontStyle=0;fontColor=#5A6C86;whiteSpace=wrap;html=1;" vertex="1" parent="1">
          <mxGeometry x="2360" y="752" width="440" height="110" as="geometry" />
        </mxCell>
        <mxCell id="ByIBVLOWsQhNoz3f1sCV-178" style="edgeStyle=orthogonalEdgeStyle;rounded=0;orthogonalLoop=1;jettySize=auto;html=1;" edge="1" parent="1" source="ByIBVLOWsQhNoz3f1sCV-179" target="ByIBVLOWsQhNoz3f1sCV-142">
          <mxGeometry relative="1" as="geometry">
            <Array as="points">
              <mxPoint x="1879" y="-80" />
            </Array>
          </mxGeometry>
        </mxCell>
        <mxCell id="ByIBVLOWsQhNoz3f1sCV-179" value="" style="sketch=0;outlineConnect=0;fontColor=#232F3E;gradientColor=none;fillColor=#8C4FFF;strokeColor=none;dashed=0;verticalLabelPosition=bottom;verticalAlign=top;align=center;html=1;fontSize=12;fontStyle=0;aspect=fixed;pointerEvents=1;shape=mxgraph.aws4.route_table;" vertex="1" parent="1">
          <mxGeometry x="1840" y="502" width="78" height="76" as="geometry" />
        </mxCell>
        <mxCell id="ByIBVLOWsQhNoz3f1sCV-180" value="Route Table" style="text;html=1;align=center;verticalAlign=middle;resizable=0;points=[];autosize=1;strokeColor=none;fillColor=none;" vertex="1" parent="1">
          <mxGeometry x="1834" y="578" width="90" height="30" as="geometry" />
        </mxCell>
        <mxCell id="ByIBVLOWsQhNoz3f1sCV-79" value="Public subnet" style="points=[[0,0],[0.25,0],[0.5,0],[0.75,0],[1,0],[1,0.25],[1,0.5],[1,0.75],[1,1],[0.75,1],[0.5,1],[0.25,1],[0,1],[0,0.75],[0,0.5],[0,0.25]];outlineConnect=0;gradientColor=none;html=1;whiteSpace=wrap;fontSize=12;fontStyle=0;container=1;pointerEvents=0;collapsible=0;recursiveResize=0;shape=mxgraph.aws4.group;grIcon=mxgraph.aws4.group_security_group;grStroke=0;strokeColor=#7AA116;fillColor=#F2F6E8;verticalAlign=top;align=left;spacingLeft=30;fontColor=#248814;dashed=0;" vertex="1" parent="1">
          <mxGeometry x="-1040" y="-220" width="920" height="280" as="geometry" />
        </mxCell>
        <mxCell id="ByIBVLOWsQhNoz3f1sCV-80" value="" style="sketch=0;outlineConnect=0;fontColor=#232F3E;gradientColor=none;fillColor=#8C4FFF;strokeColor=none;dashed=0;verticalLabelPosition=bottom;verticalAlign=top;align=center;html=1;fontSize=12;fontStyle=0;aspect=fixed;pointerEvents=1;shape=mxgraph.aws4.application_load_balancer;" vertex="1" parent="ByIBVLOWsQhNoz3f1sCV-79">
          <mxGeometry x="586" y="101" width="78" height="78" as="geometry" />
        </mxCell>
        <mxCell id="ByIBVLOWsQhNoz3f1sCV-82" value="Ingress Controller" style="text;html=1;align=center;verticalAlign=middle;resizable=0;points=[];autosize=1;strokeColor=none;fillColor=none;" vertex="1" parent="ByIBVLOWsQhNoz3f1sCV-79">
          <mxGeometry x="565" y="179" width="120" height="30" as="geometry" />
        </mxCell>
        <mxCell id="ByIBVLOWsQhNoz3f1sCV-86" value="" style="sketch=0;outlineConnect=0;fontColor=#232F3E;gradientColor=none;fillColor=#8C4FFF;strokeColor=none;dashed=0;verticalLabelPosition=bottom;verticalAlign=top;align=center;html=1;fontSize=12;fontStyle=0;aspect=fixed;pointerEvents=1;shape=mxgraph.aws4.nat_gateway;" vertex="1" parent="ByIBVLOWsQhNoz3f1sCV-79">
          <mxGeometry x="250" y="101" width="78" height="78" as="geometry" />
        </mxCell>
        <mxCell id="ByIBVLOWsQhNoz3f1sCV-87" value="NAT" style="text;html=1;align=center;verticalAlign=middle;resizable=0;points=[];autosize=1;strokeColor=none;fillColor=none;" vertex="1" parent="ByIBVLOWsQhNoz3f1sCV-79">
          <mxGeometry x="264" y="179" width="50" height="30" as="geometry" />
        </mxCell>
        <mxCell id="ByIBVLOWsQhNoz3f1sCV-89" value="" style="sketch=0;outlineConnect=0;fontColor=#232F3E;gradientColor=none;fillColor=#ED7100;strokeColor=none;dashed=0;verticalLabelPosition=bottom;verticalAlign=top;align=center;html=1;fontSize=12;fontStyle=0;aspect=fixed;pointerEvents=1;shape=mxgraph.aws4.elastic_ip_address;" vertex="1" parent="ByIBVLOWsQhNoz3f1sCV-79">
          <mxGeometry x="202" y="101" width="48" height="20" as="geometry" />
        </mxCell>
        <mxCell id="ByIBVLOWsQhNoz3f1sCV-90" value="Security group" style="fillColor=none;strokeColor=#DD3522;verticalAlign=top;fontStyle=0;fontColor=#DD3522;whiteSpace=wrap;html=1;" vertex="1" parent="ByIBVLOWsQhNoz3f1sCV-79">
          <mxGeometry x="520" y="30" width="200" height="210" as="geometry" />
        </mxCell>
        <mxCell id="ByIBVLOWsQhNoz3f1sCV-60" value="Private subnet" style="points=[[0,0],[0.25,0],[0.5,0],[0.75,0],[1,0],[1,0.25],[1,0.5],[1,0.75],[1,1],[0.75,1],[0.5,1],[0.25,1],[0,1],[0,0.75],[0,0.5],[0,0.25]];outlineConnect=0;gradientColor=none;html=1;whiteSpace=wrap;fontSize=12;fontStyle=0;container=1;pointerEvents=0;collapsible=0;recursiveResize=0;shape=mxgraph.aws4.group;grIcon=mxgraph.aws4.group_security_group;grStroke=0;strokeColor=#00A4A6;fillColor=#E6F6F7;verticalAlign=top;align=left;spacingLeft=30;fontColor=#147EBA;dashed=0;" vertex="1" parent="1">
          <mxGeometry x="-1040" y="100" width="920" height="880" as="geometry" />
        </mxCell>
        <mxCell id="ByIBVLOWsQhNoz3f1sCV-57" value="EC2 instance contents" style="points=[[0,0],[0.25,0],[0.5,0],[0.75,0],[1,0],[1,0.25],[1,0.5],[1,0.75],[1,1],[0.75,1],[0.5,1],[0.25,1],[0,1],[0,0.75],[0,0.5],[0,0.25]];outlineConnect=0;gradientColor=none;html=1;whiteSpace=wrap;fontSize=12;fontStyle=0;container=1;pointerEvents=0;collapsible=0;recursiveResize=0;shape=mxgraph.aws4.group;grIcon=mxgraph.aws4.group_ec2_instance_contents;strokeColor=#D86613;fillColor=none;verticalAlign=top;align=left;spacingLeft=30;fontColor=#D86613;dashed=0;" vertex="1" parent="1">
          <mxGeometry x="-960" y="182" width="760" height="720" as="geometry" />
        </mxCell>
        <mxCell id="ByIBVLOWsQhNoz3f1sCV-84" style="edgeStyle=orthogonalEdgeStyle;rounded=0;orthogonalLoop=1;jettySize=auto;html=1;" edge="1" parent="1" source="ByIBVLOWsQhNoz3f1sCV-58" target="ByIBVLOWsQhNoz3f1sCV-83">
          <mxGeometry relative="1" as="geometry" />
        </mxCell>
        <mxCell id="ByIBVLOWsQhNoz3f1sCV-58" value="Security group" style="fillColor=none;strokeColor=#DD3522;verticalAlign=top;fontStyle=0;fontColor=#DD3522;whiteSpace=wrap;html=1;" vertex="1" parent="1">
          <mxGeometry x="-1000" y="140" width="840" height="800" as="geometry" />
        </mxCell>
        <mxCell id="ByIBVLOWsQhNoz3f1sCV-48" value="Runtime Container Area" style="fillColor=none;strokeColor=#5A6C86;dashed=1;verticalAlign=top;fontStyle=0;fontColor=#5A6C86;whiteSpace=wrap;html=1;" vertex="1" parent="1">
          <mxGeometry x="-680" y="262" width="440" height="480" as="geometry" />
        </mxCell>
        <mxCell id="ByIBVLOWsQhNoz3f1sCV-29" value="" style="aspect=fixed;sketch=0;html=1;dashed=0;whitespace=wrap;verticalLabelPosition=bottom;verticalAlign=top;fillColor=#2875E2;strokeColor=#ffffff;points=[[0.005,0.63,0],[0.1,0.2,0],[0.9,0.2,0],[0.5,0,0],[0.995,0.63,0],[0.72,0.99,0],[0.5,1,0],[0.28,0.99,0]];shape=mxgraph.kubernetes.icon2;kubernetesLabel=1;prIcon=hpa" vertex="1" parent="1">
          <mxGeometry x="-560" y="783.5" width="50" height="48" as="geometry" />
        </mxCell>
        <mxCell id="ByIBVLOWsQhNoz3f1sCV-31" value="" style="aspect=fixed;sketch=0;html=1;dashed=0;whitespace=wrap;verticalLabelPosition=bottom;verticalAlign=top;fillColor=#2875E2;strokeColor=#ffffff;points=[[0.005,0.63,0],[0.1,0.2,0],[0.9,0.2,0],[0.5,0,0],[0.995,0.63,0],[0.72,0.99,0],[0.5,1,0],[0.28,0.99,0]];shape=mxgraph.kubernetes.icon2;kubernetesLabel=1;prIcon=svc" vertex="1" parent="1">
          <mxGeometry x="-440" y="462" width="50" height="48" as="geometry" />
        </mxCell>
        <mxCell id="ByIBVLOWsQhNoz3f1sCV-28" value="" style="aspect=fixed;sketch=0;html=1;dashed=0;whitespace=wrap;verticalLabelPosition=bottom;verticalAlign=top;fillColor=#2875E2;strokeColor=#ffffff;points=[[0.005,0.63,0],[0.1,0.2,0],[0.9,0.2,0],[0.5,0,0],[0.995,0.63,0],[0.72,0.99,0],[0.5,1,0],[0.28,0.99,0]];shape=mxgraph.kubernetes.icon2;kubernetesLabel=1;prIcon=deploy" vertex="1" parent="1">
          <mxGeometry x="-320" y="783.5" width="50" height="48" as="geometry" />
        </mxCell>
        <mxCell id="ByIBVLOWsQhNoz3f1sCV-81" style="edgeStyle=orthogonalEdgeStyle;rounded=0;orthogonalLoop=1;jettySize=auto;html=1;" edge="1" parent="1" source="ByIBVLOWsQhNoz3f1sCV-30" target="ByIBVLOWsQhNoz3f1sCV-80">
          <mxGeometry relative="1" as="geometry" />
        </mxCell>
        <mxCell id="ByIBVLOWsQhNoz3f1sCV-30" value="" style="aspect=fixed;sketch=0;html=1;dashed=0;whitespace=wrap;verticalLabelPosition=bottom;verticalAlign=top;fillColor=#2875E2;strokeColor=#ffffff;points=[[0.005,0.63,0],[0.1,0.2,0],[0.9,0.2,0],[0.5,0,0],[0.995,0.63,0],[0.72,0.99,0],[0.5,1,0],[0.28,0.99,0]];shape=mxgraph.kubernetes.icon2;kubernetesLabel=1;prIcon=ing" vertex="1" parent="1">
          <mxGeometry x="-440" y="302" width="50" height="48" as="geometry" />
        </mxCell>
        <mxCell id="ByIBVLOWsQhNoz3f1sCV-33" value="" style="aspect=fixed;sketch=0;html=1;dashed=0;whitespace=wrap;verticalLabelPosition=bottom;verticalAlign=top;fillColor=#2875E2;strokeColor=#ffffff;points=[[0.005,0.63,0],[0.1,0.2,0],[0.9,0.2,0],[0.5,0,0],[0.995,0.63,0],[0.72,0.99,0],[0.5,1,0],[0.28,0.99,0]];shape=mxgraph.kubernetes.icon2;kubernetesLabel=1;prIcon=pod" vertex="1" parent="1">
          <mxGeometry x="-440" y="622" width="50" height="48" as="geometry" />
        </mxCell>
        <mxCell id="ByIBVLOWsQhNoz3f1sCV-32" value="" style="aspect=fixed;sketch=0;html=1;dashed=0;whitespace=wrap;verticalLabelPosition=bottom;verticalAlign=top;fillColor=#2875E2;strokeColor=#ffffff;points=[[0.005,0.63,0],[0.1,0.2,0],[0.9,0.2,0],[0.5,0,0],[0.995,0.63,0],[0.72,0.99,0],[0.5,1,0],[0.28,0.99,0]];shape=mxgraph.kubernetes.icon2;kubernetesLabel=1;prIcon=pod" vertex="1" parent="1">
          <mxGeometry x="-560" y="622" width="50" height="48" as="geometry" />
        </mxCell>
        <mxCell id="ByIBVLOWsQhNoz3f1sCV-34" value="" style="aspect=fixed;sketch=0;html=1;dashed=0;whitespace=wrap;verticalLabelPosition=bottom;verticalAlign=top;fillColor=#2875E2;strokeColor=#ffffff;points=[[0.005,0.63,0],[0.1,0.2,0],[0.9,0.2,0],[0.5,0,0],[0.995,0.63,0],[0.72,0.99,0],[0.5,1,0],[0.28,0.99,0]];shape=mxgraph.kubernetes.icon2;kubernetesLabel=1;prIcon=pod" vertex="1" parent="1">
          <mxGeometry x="-320" y="622" width="50" height="48" as="geometry" />
        </mxCell>
        <mxCell id="ByIBVLOWsQhNoz3f1sCV-35" value="" style="aspect=fixed;sketch=0;html=1;dashed=0;whitespace=wrap;verticalLabelPosition=bottom;verticalAlign=top;fillColor=#2875E2;strokeColor=#ffffff;points=[[0.005,0.63,0],[0.1,0.2,0],[0.9,0.2,0],[0.5,0,0],[0.995,0.63,0],[0.72,0.99,0],[0.5,1,0],[0.28,0.99,0]];shape=mxgraph.kubernetes.icon2;prIcon=pod" vertex="1" parent="1">
          <mxGeometry x="-440" y="783.5" width="50" height="48" as="geometry" />
        </mxCell>
        <mxCell id="ByIBVLOWsQhNoz3f1sCV-36" value="pdb" style="text;html=1;align=center;verticalAlign=middle;resizable=0;points=[];autosize=1;strokeColor=none;fillColor=none;fontColor=#FFFFFF;fontSize=7;" vertex="1" parent="1">
          <mxGeometry x="-435" y="814.5" width="40" height="20" as="geometry" />
        </mxCell>
        <mxCell id="ByIBVLOWsQhNoz3f1sCV-37" value="" style="aspect=fixed;sketch=0;html=1;dashed=0;whitespace=wrap;verticalLabelPosition=bottom;verticalAlign=top;fillColor=#2875E2;strokeColor=#ffffff;points=[[0.005,0.63,0],[0.1,0.2,0],[0.9,0.2,0],[0.5,0,0],[0.995,0.63,0],[0.72,0.99,0],[0.5,1,0],[0.28,0.99,0]];shape=mxgraph.kubernetes.icon2;prIcon=pod" vertex="1" parent="1">
          <mxGeometry x="-680" y="783.5" width="50" height="48" as="geometry" />
        </mxCell>
        <mxCell id="ByIBVLOWsQhNoz3f1sCV-38" value="ca" style="text;html=1;align=center;verticalAlign=middle;resizable=0;points=[];autosize=1;strokeColor=none;fillColor=none;fontColor=#FFFFFF;fontSize=7;" vertex="1" parent="1">
          <mxGeometry x="-670" y="814.5" width="30" height="20" as="geometry" />
        </mxCell>
        <mxCell id="ByIBVLOWsQhNoz3f1sCV-39" style="edgeStyle=orthogonalEdgeStyle;rounded=0;orthogonalLoop=1;jettySize=auto;html=1;entryX=0.5;entryY=0;entryDx=0;entryDy=0;entryPerimeter=0;startArrow=open;startFill=0;" edge="1" parent="1" source="ByIBVLOWsQhNoz3f1sCV-30" target="ByIBVLOWsQhNoz3f1sCV-31">
          <mxGeometry relative="1" as="geometry" />
        </mxCell>
        <mxCell id="ByIBVLOWsQhNoz3f1sCV-40" style="edgeStyle=orthogonalEdgeStyle;rounded=0;orthogonalLoop=1;jettySize=auto;html=1;entryX=0.5;entryY=0;entryDx=0;entryDy=0;entryPerimeter=0;startArrow=block;startFill=1;" edge="1" parent="1" source="ByIBVLOWsQhNoz3f1sCV-31" target="ByIBVLOWsQhNoz3f1sCV-32">
          <mxGeometry relative="1" as="geometry" />
        </mxCell>
        <mxCell id="ByIBVLOWsQhNoz3f1sCV-41" style="edgeStyle=orthogonalEdgeStyle;rounded=0;orthogonalLoop=1;jettySize=auto;html=1;entryX=0.5;entryY=0;entryDx=0;entryDy=0;entryPerimeter=0;startArrow=blockThin;startFill=1;" edge="1" parent="1" source="ByIBVLOWsQhNoz3f1sCV-31" target="ByIBVLOWsQhNoz3f1sCV-34">
          <mxGeometry relative="1" as="geometry" />
        </mxCell>
        <mxCell id="ByIBVLOWsQhNoz3f1sCV-42" style="edgeStyle=orthogonalEdgeStyle;rounded=0;orthogonalLoop=1;jettySize=auto;html=1;entryX=0.5;entryY=0;entryDx=0;entryDy=0;entryPerimeter=0;startArrow=block;startFill=1;" edge="1" parent="1" source="ByIBVLOWsQhNoz3f1sCV-31" target="ByIBVLOWsQhNoz3f1sCV-33">
          <mxGeometry relative="1" as="geometry" />
        </mxCell>
        <mxCell id="ByIBVLOWsQhNoz3f1sCV-43" value="" style="endArrow=classic;html=1;rounded=0;dashed=1;dashPattern=8 8;exitX=0.5;exitY=0;exitDx=0;exitDy=0;exitPerimeter=0;entryX=0.72;entryY=0.99;entryDx=0;entryDy=0;entryPerimeter=0;" edge="1" parent="1" source="ByIBVLOWsQhNoz3f1sCV-28" target="ByIBVLOWsQhNoz3f1sCV-32">
          <mxGeometry width="50" height="50" relative="1" as="geometry">
            <mxPoint x="-200" y="662" as="sourcePoint" />
            <mxPoint x="-150" y="612" as="targetPoint" />
          </mxGeometry>
        </mxCell>
        <mxCell id="ByIBVLOWsQhNoz3f1sCV-44" value="" style="endArrow=classic;html=1;rounded=0;dashed=1;dashPattern=8 8;exitX=0.5;exitY=0;exitDx=0;exitDy=0;exitPerimeter=0;entryX=0.72;entryY=0.99;entryDx=0;entryDy=0;entryPerimeter=0;" edge="1" parent="1" source="ByIBVLOWsQhNoz3f1sCV-28" target="ByIBVLOWsQhNoz3f1sCV-33">
          <mxGeometry width="50" height="50" relative="1" as="geometry">
            <mxPoint x="-245" y="712" as="sourcePoint" />
            <mxPoint x="-394" y="680" as="targetPoint" />
          </mxGeometry>
        </mxCell>
        <mxCell id="ByIBVLOWsQhNoz3f1sCV-45" value="" style="endArrow=classic;html=1;rounded=0;dashed=1;dashPattern=8 8;exitX=0.5;exitY=0;exitDx=0;exitDy=0;exitPerimeter=0;entryX=0.5;entryY=1;entryDx=0;entryDy=0;entryPerimeter=0;" edge="1" parent="1" source="ByIBVLOWsQhNoz3f1sCV-28" target="ByIBVLOWsQhNoz3f1sCV-34">
          <mxGeometry width="50" height="50" relative="1" as="geometry">
            <mxPoint x="-245" y="712" as="sourcePoint" />
            <mxPoint x="-314" y="680" as="targetPoint" />
          </mxGeometry>
        </mxCell>
        <mxCell id="ByIBVLOWsQhNoz3f1sCV-46" value="" style="aspect=fixed;sketch=0;html=1;dashed=0;whitespace=wrap;verticalLabelPosition=bottom;verticalAlign=top;fillColor=#2875E2;strokeColor=#ffffff;points=[[0.005,0.63,0],[0.1,0.2,0],[0.9,0.2,0],[0.5,0,0],[0.995,0.63,0],[0.72,0.99,0],[0.5,1,0],[0.28,0.99,0]];shape=mxgraph.kubernetes.icon2;kubernetesLabel=1;prIcon=k_proxy" vertex="1" parent="1">
          <mxGeometry x="-840" y="422" width="50" height="48" as="geometry" />
        </mxCell>
        <mxCell id="ByIBVLOWsQhNoz3f1sCV-51" style="edgeStyle=orthogonalEdgeStyle;rounded=0;orthogonalLoop=1;jettySize=auto;html=1;" edge="1" parent="1" source="ByIBVLOWsQhNoz3f1sCV-47">
          <mxGeometry relative="1" as="geometry">
            <mxPoint x="-690" y="807.5" as="targetPoint" />
          </mxGeometry>
        </mxCell>
        <mxCell id="ByIBVLOWsQhNoz3f1sCV-47" value="" style="aspect=fixed;sketch=0;html=1;dashed=0;whitespace=wrap;verticalLabelPosition=bottom;verticalAlign=top;fillColor=#2875E2;strokeColor=#ffffff;points=[[0.005,0.63,0],[0.1,0.2,0],[0.9,0.2,0],[0.5,0,0],[0.995,0.63,0],[0.72,0.99,0],[0.5,1,0],[0.28,0.99,0]];shape=mxgraph.kubernetes.icon2;kubernetesLabel=1;prIcon=kubelet" vertex="1" parent="1">
          <mxGeometry x="-840" y="783.5" width="50" height="48" as="geometry" />
        </mxCell>
        <mxCell id="ByIBVLOWsQhNoz3f1sCV-50" style="edgeStyle=orthogonalEdgeStyle;rounded=0;orthogonalLoop=1;jettySize=auto;html=1;entryX=0.1;entryY=0.2;entryDx=0;entryDy=0;entryPerimeter=0;" edge="1" parent="1" source="ByIBVLOWsQhNoz3f1sCV-46" target="ByIBVLOWsQhNoz3f1sCV-31">
          <mxGeometry relative="1" as="geometry">
            <Array as="points">
              <mxPoint x="-435" y="446" />
            </Array>
          </mxGeometry>
        </mxCell>
        <mxCell id="ByIBVLOWsQhNoz3f1sCV-55" value="" style="fillColor=none;strokeColor=#5A6C86;dashed=1;verticalAlign=top;fontStyle=0;fontColor=#5A6C86;whiteSpace=wrap;html=1;" vertex="1" parent="1">
          <mxGeometry x="-680" y="752" width="440" height="110" as="geometry" />
        </mxCell>
        <mxCell id="ByIBVLOWsQhNoz3f1sCV-88" style="edgeStyle=orthogonalEdgeStyle;rounded=0;orthogonalLoop=1;jettySize=auto;html=1;" edge="1" parent="1" source="ByIBVLOWsQhNoz3f1sCV-83" target="ByIBVLOWsQhNoz3f1sCV-86">
          <mxGeometry relative="1" as="geometry">
            <Array as="points">
              <mxPoint x="-1161" y="-80" />
            </Array>
          </mxGeometry>
        </mxCell>
        <mxCell id="ByIBVLOWsQhNoz3f1sCV-83" value="" style="sketch=0;outlineConnect=0;fontColor=#232F3E;gradientColor=none;fillColor=#8C4FFF;strokeColor=none;dashed=0;verticalLabelPosition=bottom;verticalAlign=top;align=center;html=1;fontSize=12;fontStyle=0;aspect=fixed;pointerEvents=1;shape=mxgraph.aws4.route_table;" vertex="1" parent="1">
          <mxGeometry x="-1200" y="502" width="78" height="76" as="geometry" />
        </mxCell>
        <mxCell id="ByIBVLOWsQhNoz3f1sCV-85" value="Route Table" style="text;html=1;align=center;verticalAlign=middle;resizable=0;points=[];autosize=1;strokeColor=none;fillColor=none;" vertex="1" parent="1">
          <mxGeometry x="-1206" y="578" width="90" height="30" as="geometry" />
        </mxCell>
        <mxCell id="ByIBVLOWsQhNoz3f1sCV-182" value="VPC" style="points=[[0,0],[0.25,0],[0.5,0],[0.75,0],[1,0],[1,0.25],[1,0.5],[1,0.75],[1,1],[0.75,1],[0.5,1],[0.25,1],[0,1],[0,0.75],[0,0.5],[0,0.25]];outlineConnect=0;gradientColor=none;html=1;whiteSpace=wrap;fontSize=12;fontStyle=0;container=1;pointerEvents=0;collapsible=0;recursiveResize=0;shape=mxgraph.aws4.group;grIcon=mxgraph.aws4.group_vpc2;strokeColor=#8C4FFF;fillColor=none;verticalAlign=top;align=left;spacingLeft=30;fontColor=#AAB7B8;dashed=0;" vertex="1" parent="1">
          <mxGeometry x="-1520" y="-540" width="4720" height="1760" as="geometry" />
        </mxCell>
        <mxCell id="ByIBVLOWsQhNoz3f1sCV-64" value="" style="sketch=0;outlineConnect=0;fontColor=#232F3E;gradientColor=none;fillColor=#8C4FFF;strokeColor=none;dashed=0;verticalLabelPosition=bottom;verticalAlign=top;align=center;html=1;fontSize=12;fontStyle=0;aspect=fixed;pointerEvents=1;shape=mxgraph.aws4.elastic_network_interface;" vertex="1" parent="ByIBVLOWsQhNoz3f1sCV-182">
          <mxGeometry x="2400" y="1660" width="50" height="50" as="geometry" />
        </mxCell>
        <mxCell id="ByIBVLOWsQhNoz3f1sCV-183" value="AWS Cloud" style="points=[[0,0],[0.25,0],[0.5,0],[0.75,0],[1,0],[1,0.25],[1,0.5],[1,0.75],[1,1],[0.75,1],[0.5,1],[0.25,1],[0,1],[0,0.75],[0,0.5],[0,0.25]];outlineConnect=0;gradientColor=none;html=1;whiteSpace=wrap;fontSize=12;fontStyle=0;container=1;pointerEvents=0;collapsible=0;recursiveResize=0;shape=mxgraph.aws4.group;grIcon=mxgraph.aws4.group_aws_cloud_alt;strokeColor=#232F3E;fillColor=none;verticalAlign=top;align=left;spacingLeft=30;fontColor=#232F3E;dashed=0;" vertex="1" parent="1">
          <mxGeometry x="-1520" y="1300" width="4720" height="400" as="geometry" />
        </mxCell>
        <mxCell id="ByIBVLOWsQhNoz3f1sCV-52" value="" style="aspect=fixed;sketch=0;html=1;dashed=0;whitespace=wrap;verticalLabelPosition=bottom;verticalAlign=top;fillColor=#2875E2;strokeColor=#ffffff;points=[[0.005,0.63,0],[0.1,0.2,0],[0.9,0.2,0],[0.5,0,0],[0.995,0.63,0],[0.72,0.99,0],[0.5,1,0],[0.28,0.99,0]];shape=mxgraph.kubernetes.icon2;kubernetesLabel=1;prIcon=api" vertex="1" parent="ByIBVLOWsQhNoz3f1sCV-183">
          <mxGeometry x="2145" y="200" width="50" height="48" as="geometry" />
        </mxCell>
        <mxCell id="ByIBVLOWsQhNoz3f1sCV-62" value="EC2 instance contents" style="points=[[0,0],[0.25,0],[0.5,0],[0.75,0],[1,0],[1,0.25],[1,0.5],[1,0.75],[1,1],[0.75,1],[0.5,1],[0.25,1],[0,1],[0,0.75],[0,0.5],[0,0.25]];outlineConnect=0;gradientColor=none;html=1;whiteSpace=wrap;fontSize=12;fontStyle=0;container=1;pointerEvents=0;collapsible=0;recursiveResize=0;shape=mxgraph.aws4.group;grIcon=mxgraph.aws4.group_ec2_instance_contents;strokeColor=#D86613;fillColor=none;verticalAlign=top;align=left;spacingLeft=30;fontColor=#D86613;dashed=0;" vertex="1" parent="ByIBVLOWsQhNoz3f1sCV-183">
          <mxGeometry x="2025" y="80" width="800" height="240" as="geometry" />
        </mxCell>
        <mxCell id="ByIBVLOWsQhNoz3f1sCV-68" value="" style="aspect=fixed;sketch=0;html=1;dashed=0;whitespace=wrap;verticalLabelPosition=bottom;verticalAlign=top;fillColor=#2875E2;strokeColor=#ffffff;points=[[0.005,0.63,0],[0.1,0.2,0],[0.9,0.2,0],[0.5,0,0],[0.995,0.63,0],[0.72,0.99,0],[0.5,1,0],[0.28,0.99,0]];shape=mxgraph.kubernetes.icon2;prIcon=api" vertex="1" parent="ByIBVLOWsQhNoz3f1sCV-62">
          <mxGeometry x="282" y="120" width="50" height="48" as="geometry" />
        </mxCell>
        <mxCell id="ByIBVLOWsQhNoz3f1sCV-69" value="" style="aspect=fixed;sketch=0;html=1;dashed=0;whitespace=wrap;verticalLabelPosition=bottom;verticalAlign=top;fillColor=#2875E2;strokeColor=#ffffff;points=[[0.005,0.63,0],[0.1,0.2,0],[0.9,0.2,0],[0.5,0,0],[0.995,0.63,0],[0.72,0.99,0],[0.5,1,0],[0.28,0.99,0]];shape=mxgraph.kubernetes.icon2;prIcon=api" vertex="1" parent="ByIBVLOWsQhNoz3f1sCV-62">
          <mxGeometry x="400" y="120" width="50" height="48" as="geometry" />
        </mxCell>
        <mxCell id="ByIBVLOWsQhNoz3f1sCV-70" value="" style="aspect=fixed;sketch=0;html=1;dashed=0;whitespace=wrap;verticalLabelPosition=bottom;verticalAlign=top;fillColor=#2875E2;strokeColor=#ffffff;points=[[0.005,0.63,0],[0.1,0.2,0],[0.9,0.2,0],[0.5,0,0],[0.995,0.63,0],[0.72,0.99,0],[0.5,1,0],[0.28,0.99,0]];shape=mxgraph.kubernetes.icon2;prIcon=api" vertex="1" parent="ByIBVLOWsQhNoz3f1sCV-62">
          <mxGeometry x="520" y="120" width="50" height="48" as="geometry" />
        </mxCell>
        <mxCell id="ByIBVLOWsQhNoz3f1sCV-71" value="Controll Manager" style="text;html=1;align=center;verticalAlign=middle;resizable=0;points=[];autosize=1;strokeColor=none;fillColor=none;" vertex="1" parent="ByIBVLOWsQhNoz3f1sCV-62">
          <mxGeometry x="247" y="170" width="120" height="30" as="geometry" />
        </mxCell>
        <mxCell id="ByIBVLOWsQhNoz3f1sCV-72" value="ETCD" style="text;html=1;align=center;verticalAlign=middle;resizable=0;points=[];autosize=1;strokeColor=none;fillColor=none;" vertex="1" parent="ByIBVLOWsQhNoz3f1sCV-62">
          <mxGeometry x="395" y="170" width="60" height="30" as="geometry" />
        </mxCell>
        <mxCell id="ByIBVLOWsQhNoz3f1sCV-73" value="Scheduler" style="text;html=1;align=center;verticalAlign=middle;resizable=0;points=[];autosize=1;strokeColor=none;fillColor=none;" vertex="1" parent="ByIBVLOWsQhNoz3f1sCV-62">
          <mxGeometry x="505" y="168" width="80" height="30" as="geometry" />
        </mxCell>
        <mxCell id="ByIBVLOWsQhNoz3f1sCV-74" style="edgeStyle=orthogonalEdgeStyle;rounded=0;orthogonalLoop=1;jettySize=auto;html=1;exitX=0.5;exitY=1;exitDx=0;exitDy=0;exitPerimeter=0;entryX=0.5;entryY=1;entryDx=0;entryDy=0;entryPerimeter=0;" edge="1" parent="ByIBVLOWsQhNoz3f1sCV-183" source="ByIBVLOWsQhNoz3f1sCV-68" target="ByIBVLOWsQhNoz3f1sCV-52">
          <mxGeometry relative="1" as="geometry">
            <Array as="points">
              <mxPoint x="2332" y="290" />
              <mxPoint x="2170" y="290" />
            </Array>
          </mxGeometry>
        </mxCell>
        <mxCell id="ByIBVLOWsQhNoz3f1sCV-75" style="edgeStyle=orthogonalEdgeStyle;rounded=0;orthogonalLoop=1;jettySize=auto;html=1;exitX=0.5;exitY=1;exitDx=0;exitDy=0;exitPerimeter=0;entryX=0.5;entryY=1;entryDx=0;entryDy=0;entryPerimeter=0;" edge="1" parent="ByIBVLOWsQhNoz3f1sCV-183" source="ByIBVLOWsQhNoz3f1sCV-69" target="ByIBVLOWsQhNoz3f1sCV-52">
          <mxGeometry relative="1" as="geometry">
            <Array as="points">
              <mxPoint x="2450" y="290" />
              <mxPoint x="2170" y="290" />
            </Array>
          </mxGeometry>
        </mxCell>
        <mxCell id="ByIBVLOWsQhNoz3f1sCV-76" style="edgeStyle=orthogonalEdgeStyle;rounded=0;orthogonalLoop=1;jettySize=auto;html=1;entryX=0.5;entryY=1;entryDx=0;entryDy=0;entryPerimeter=0;" edge="1" parent="ByIBVLOWsQhNoz3f1sCV-183" source="ByIBVLOWsQhNoz3f1sCV-73" target="ByIBVLOWsQhNoz3f1sCV-52">
          <mxGeometry relative="1" as="geometry">
            <Array as="points">
              <mxPoint x="2570" y="290" />
              <mxPoint x="2170" y="290" />
            </Array>
          </mxGeometry>
        </mxCell>
        <mxCell id="ByIBVLOWsQhNoz3f1sCV-184" style="edgeStyle=orthogonalEdgeStyle;rounded=0;orthogonalLoop=1;jettySize=auto;html=1;" edge="1" parent="1" source="ByIBVLOWsQhNoz3f1sCV-52" target="ByIBVLOWsQhNoz3f1sCV-64">
          <mxGeometry relative="1" as="geometry">
            <Array as="points">
              <mxPoint x="650" y="1270" />
              <mxPoint x="905" y="1270" />
            </Array>
          </mxGeometry>
        </mxCell>
        <mxCell id="ByIBVLOWsQhNoz3f1sCV-185" style="edgeStyle=orthogonalEdgeStyle;rounded=0;orthogonalLoop=1;jettySize=auto;html=1;" edge="1" parent="1" source="ByIBVLOWsQhNoz3f1sCV-64" target="ByIBVLOWsQhNoz3f1sCV-47">
          <mxGeometry relative="1" as="geometry" />
        </mxCell>
        <mxCell id="ByIBVLOWsQhNoz3f1sCV-186" style="edgeStyle=orthogonalEdgeStyle;rounded=0;orthogonalLoop=1;jettySize=auto;html=1;entryX=0.5;entryY=1;entryDx=0;entryDy=0;entryPerimeter=0;" edge="1" parent="1" source="ByIBVLOWsQhNoz3f1sCV-64" target="ByIBVLOWsQhNoz3f1sCV-128">
          <mxGeometry relative="1" as="geometry" />
        </mxCell>
        <mxCell id="ByIBVLOWsQhNoz3f1sCV-187" style="edgeStyle=orthogonalEdgeStyle;rounded=0;orthogonalLoop=1;jettySize=auto;html=1;" edge="1" parent="1" source="ByIBVLOWsQhNoz3f1sCV-64" target="ByIBVLOWsQhNoz3f1sCV-172">
          <mxGeometry relative="1" as="geometry" />
        </mxCell>
        <mxCell id="ByIBVLOWsQhNoz3f1sCV-188" style="edgeStyle=orthogonalEdgeStyle;rounded=0;orthogonalLoop=1;jettySize=auto;html=1;entryX=0.005;entryY=0.63;entryDx=0;entryDy=0;entryPerimeter=0;" edge="1" parent="1" source="ByIBVLOWsQhNoz3f1sCV-64" target="ByIBVLOWsQhNoz3f1sCV-126">
          <mxGeometry relative="1" as="geometry">
            <Array as="points">
              <mxPoint x="620" y="1145" />
              <mxPoint x="620" y="452" />
            </Array>
          </mxGeometry>
        </mxCell>
        <mxCell id="ByIBVLOWsQhNoz3f1sCV-189" style="edgeStyle=orthogonalEdgeStyle;rounded=0;orthogonalLoop=1;jettySize=auto;html=1;entryX=0.005;entryY=0.63;entryDx=0;entryDy=0;entryPerimeter=0;" edge="1" parent="1" source="ByIBVLOWsQhNoz3f1sCV-64" target="ByIBVLOWsQhNoz3f1sCV-170">
          <mxGeometry relative="1" as="geometry">
            <Array as="points">
              <mxPoint x="2140" y="1145" />
              <mxPoint x="2140" y="452" />
            </Array>
          </mxGeometry>
        </mxCell>
        <mxCell id="ByIBVLOWsQhNoz3f1sCV-190" style="edgeStyle=orthogonalEdgeStyle;rounded=0;orthogonalLoop=1;jettySize=auto;html=1;entryX=0.005;entryY=0.63;entryDx=0;entryDy=0;entryPerimeter=0;" edge="1" parent="1" source="ByIBVLOWsQhNoz3f1sCV-64" target="ByIBVLOWsQhNoz3f1sCV-46">
          <mxGeometry relative="1" as="geometry">
            <Array as="points">
              <mxPoint x="-920" y="1145" />
              <mxPoint x="-920" y="452" />
            </Array>
          </mxGeometry>
        </mxCell>
        <mxCell id="ByIBVLOWsQhNoz3f1sCV-191" value="" style="sketch=0;outlineConnect=0;fontColor=#232F3E;gradientColor=none;fillColor=#8C4FFF;strokeColor=none;dashed=0;verticalLabelPosition=bottom;verticalAlign=top;align=center;html=1;fontSize=12;fontStyle=0;aspect=fixed;pointerEvents=1;shape=mxgraph.aws4.internet_gateway;" vertex="1" parent="1">
          <mxGeometry x="749" y="-598" width="78" height="78" as="geometry" />
        </mxCell>
        <mxCell id="ByIBVLOWsQhNoz3f1sCV-192" value="" style="sketch=0;points=[[0,0,0],[0.25,0,0],[0.5,0,0],[0.75,0,0],[1,0,0],[0,1,0],[0.25,1,0],[0.5,1,0],[0.75,1,0],[1,1,0],[0,0.25,0],[0,0.5,0],[0,0.75,0],[1,0.25,0],[1,0.5,0],[1,0.75,0]];outlineConnect=0;fontColor=#232F3E;fillColor=#DD344C;strokeColor=#ffffff;dashed=0;verticalLabelPosition=bottom;verticalAlign=top;align=center;html=1;fontSize=12;fontStyle=0;aspect=fixed;shape=mxgraph.aws4.resourceIcon;resIcon=mxgraph.aws4.waf;" vertex="1" parent="1">
          <mxGeometry x="749" y="-980" width="78" height="78" as="geometry" />
        </mxCell>
        <mxCell id="ByIBVLOWsQhNoz3f1sCV-193" value="" style="sketch=0;points=[[0,0,0],[0.25,0,0],[0.5,0,0],[0.75,0,0],[1,0,0],[0,1,0],[0.25,1,0],[0.5,1,0],[0.75,1,0],[1,1,0],[0,0.25,0],[0,0.5,0],[0,0.75,0],[1,0.25,0],[1,0.5,0],[1,0.75,0]];outlineConnect=0;fontColor=#232F3E;fillColor=#DD344C;strokeColor=#ffffff;dashed=0;verticalLabelPosition=bottom;verticalAlign=top;align=center;html=1;fontSize=12;fontStyle=0;aspect=fixed;shape=mxgraph.aws4.resourceIcon;resIcon=mxgraph.aws4.shield;" vertex="1" parent="1">
          <mxGeometry x="749" y="-820" width="78" height="78" as="geometry" />
        </mxCell>
        <mxCell id="ByIBVLOWsQhNoz3f1sCV-194" style="edgeStyle=orthogonalEdgeStyle;rounded=0;orthogonalLoop=1;jettySize=auto;html=1;" edge="1" parent="1" source="ByIBVLOWsQhNoz3f1sCV-98" target="ByIBVLOWsQhNoz3f1sCV-191">
          <mxGeometry relative="1" as="geometry">
            <Array as="points">
              <mxPoint x="769" y="-360" />
              <mxPoint x="788" y="-360" />
            </Array>
          </mxGeometry>
        </mxCell>
        <mxCell id="ByIBVLOWsQhNoz3f1sCV-195" style="edgeStyle=orthogonalEdgeStyle;rounded=0;orthogonalLoop=1;jettySize=auto;html=1;" edge="1" parent="1" source="ByIBVLOWsQhNoz3f1sCV-101" target="ByIBVLOWsQhNoz3f1sCV-191">
          <mxGeometry relative="1" as="geometry">
            <Array as="points">
              <mxPoint x="1100" y="-360" />
              <mxPoint x="788" y="-360" />
            </Array>
          </mxGeometry>
        </mxCell>
        <mxCell id="ByIBVLOWsQhNoz3f1sCV-196" style="edgeStyle=orthogonalEdgeStyle;rounded=0;orthogonalLoop=1;jettySize=auto;html=1;" edge="1" parent="1" source="ByIBVLOWsQhNoz3f1sCV-90" target="ByIBVLOWsQhNoz3f1sCV-191">
          <mxGeometry relative="1" as="geometry">
            <Array as="points">
              <mxPoint x="-420" y="-360" />
              <mxPoint x="788" y="-360" />
            </Array>
          </mxGeometry>
        </mxCell>
        <mxCell id="ByIBVLOWsQhNoz3f1sCV-197" style="edgeStyle=orthogonalEdgeStyle;rounded=0;orthogonalLoop=1;jettySize=auto;html=1;" edge="1" parent="1" source="ByIBVLOWsQhNoz3f1sCV-86" target="ByIBVLOWsQhNoz3f1sCV-191">
          <mxGeometry relative="1" as="geometry">
            <Array as="points">
              <mxPoint x="-751" y="-360" />
              <mxPoint x="788" y="-360" />
            </Array>
          </mxGeometry>
        </mxCell>
        <mxCell id="ByIBVLOWsQhNoz3f1sCV-198" style="edgeStyle=orthogonalEdgeStyle;rounded=0;orthogonalLoop=1;jettySize=auto;html=1;" edge="1" parent="1" source="ByIBVLOWsQhNoz3f1sCV-142" target="ByIBVLOWsQhNoz3f1sCV-191">
          <mxGeometry relative="1" as="geometry">
            <Array as="points">
              <mxPoint x="2289" y="-360" />
              <mxPoint x="788" y="-360" />
            </Array>
          </mxGeometry>
        </mxCell>
        <mxCell id="ByIBVLOWsQhNoz3f1sCV-199" style="edgeStyle=orthogonalEdgeStyle;rounded=0;orthogonalLoop=1;jettySize=auto;html=1;" edge="1" parent="1" source="ByIBVLOWsQhNoz3f1sCV-145" target="ByIBVLOWsQhNoz3f1sCV-191">
          <mxGeometry relative="1" as="geometry">
            <Array as="points">
              <mxPoint x="2620" y="-360" />
              <mxPoint x="788" y="-360" />
            </Array>
          </mxGeometry>
        </mxCell>
        <mxCell id="ByIBVLOWsQhNoz3f1sCV-200" style="edgeStyle=orthogonalEdgeStyle;rounded=0;orthogonalLoop=1;jettySize=auto;html=1;entryX=0.5;entryY=1;entryDx=0;entryDy=0;entryPerimeter=0;startArrow=classic;startFill=1;" edge="1" parent="1" source="ByIBVLOWsQhNoz3f1sCV-191" target="ByIBVLOWsQhNoz3f1sCV-193">
          <mxGeometry relative="1" as="geometry" />
        </mxCell>
        <mxCell id="ByIBVLOWsQhNoz3f1sCV-201" style="edgeStyle=orthogonalEdgeStyle;rounded=0;orthogonalLoop=1;jettySize=auto;html=1;entryX=0.5;entryY=1;entryDx=0;entryDy=0;entryPerimeter=0;startArrow=classic;startFill=1;" edge="1" parent="1" source="ByIBVLOWsQhNoz3f1sCV-193" target="ByIBVLOWsQhNoz3f1sCV-192">
          <mxGeometry relative="1" as="geometry" />
        </mxCell>
        <mxCell id="ByIBVLOWsQhNoz3f1sCV-202" value="Region" style="points=[[0,0],[0.25,0],[0.5,0],[0.75,0],[1,0],[1,0.25],[1,0.5],[1,0.75],[1,1],[0.75,1],[0.5,1],[0.25,1],[0,1],[0,0.75],[0,0.5],[0,0.25]];outlineConnect=0;gradientColor=none;html=1;whiteSpace=wrap;fontSize=12;fontStyle=0;container=1;pointerEvents=0;collapsible=0;recursiveResize=0;shape=mxgraph.aws4.group;grIcon=mxgraph.aws4.group_region;strokeColor=#00A4A6;fillColor=none;verticalAlign=top;align=left;spacingLeft=30;fontColor=#147EBA;dashed=1;" vertex="1" parent="1">
          <mxGeometry x="-1600" y="-700" width="4880" height="1970" as="geometry" />
        </mxCell>
        <mxCell id="ByIBVLOWsQhNoz3f1sCV-205" value="" style="sketch=0;outlineConnect=0;fontColor=#232F3E;gradientColor=none;fillColor=#8C4FFF;strokeColor=none;dashed=0;verticalLabelPosition=bottom;verticalAlign=top;align=center;html=1;fontSize=12;fontStyle=0;aspect=fixed;pointerEvents=1;shape=mxgraph.aws4.internet_gateway;" vertex="1" parent="1">
          <mxGeometry x="800" y="1710" width="78" height="78" as="geometry" />
        </mxCell>
        <mxCell id="ByIBVLOWsQhNoz3f1sCV-206" style="edgeStyle=orthogonalEdgeStyle;rounded=0;orthogonalLoop=1;jettySize=auto;html=1;entryX=0.5;entryY=1;entryDx=0;entryDy=0;entryPerimeter=0;" edge="1" parent="1" source="ByIBVLOWsQhNoz3f1sCV-205" target="ByIBVLOWsQhNoz3f1sCV-52">
          <mxGeometry relative="1" as="geometry">
            <Array as="points">
              <mxPoint x="839" y="1660" />
              <mxPoint x="650" y="1660" />
            </Array>
          </mxGeometry>
        </mxCell>
        <mxCell id="ByIBVLOWsQhNoz3f1sCV-207" value="" style="endArrow=classic;html=1;rounded=0;" edge="1" parent="1" target="ByIBVLOWsQhNoz3f1sCV-205">
          <mxGeometry width="50" height="50" relative="1" as="geometry">
            <mxPoint x="840" y="1910" as="sourcePoint" />
            <mxPoint x="880" y="1870" as="targetPoint" />
          </mxGeometry>
        </mxCell>
        <mxCell id="ByIBVLOWsQhNoz3f1sCV-208" value="" style="verticalLabelPosition=bottom;shadow=0;dashed=0;align=center;html=1;verticalAlign=top;strokeWidth=1;shape=mxgraph.mockup.containers.userMale;strokeColor=#666666;strokeColor2=#008cff;" vertex="1" parent="1">
          <mxGeometry x="790" y="1910" width="100" height="100" as="geometry" />
        </mxCell>
      </root>
    </mxGraphModel>
  </diagram>
</mxfile>
